The Hobbit: An Unexpected Journey (2012) 1080p High Definition Trailer

Apple QuickTime MOV format

+-------------------+
|Detailed Media Info|
+-------------------+


General

Format                           : MPEG-4
Format profile                   : QuickTime
Codec ID                         : qt  
File size                        : 173 MiB
Duration                         : 2mn 31s
Overall bit rate                 : 9 586 Kbps
Movie name                       : The Hobbit: An Unexpected Journey
Movie name/More                  : In theaters 2011
Encoded date                     : UTC 2011-12-20 00:25:34
Tagged date                      : UTC 2011-12-20 00:25:37
Writing library                  : Apple QuickTime 7.6.0
Copyright                        : © 2011 Warner Bros. Pictures. All Rights Reserved
Comment                          : Encoded and delivered by apple.com/trailers/
com.apple.quicktime.player.movie : (Binary)

Video

ID                               : 1
Format                           : AVC
Format/Info                      : Advanced Video Codec
Format profile                   : Main@L4.0
Format settings, CABAC           : No
Format settings, ReFrames        : 2 frames
Format settings, GOP             : M=2, N=60
Codec ID                         : avc1
Codec ID/Info                    : Advanced Video Coding
Duration                         : 2mn 31s
Bit rate                         : 9 501 Kbps
Width                            : 1 920 pixels
Height                           : 816 pixels
Display aspect ratio             : 2.35:1
Frame rate mode                  : Constant
Frame rate                       : 23.976 fps
Color space                      : YUV
Chroma subsampling               : 4:2:0
Bit depth                        : 8 bits
Scan type                        : Progressive
Bits/(Pixel*Frame)               : 0.253
Stream size                      : 171 MiB (99%)
Language                         : English
Encoded date                     : UTC 2011-12-19 23:05:34
Tagged date                      : UTC 2011-12-20 00:25:37
Color primaries                  : BT.709-5, BT.1361, IEC 61966-2-4, SMPTE RP177
Transfer characteristics         : BT.709-5, BT.1361
Matrix coefficients              : BT.709-5, BT.1361, IEC 61966-2-4 709, SMPTE RP177

Audio

ID                               : 2
Format                           : AAC
Format/Info                      : Advanced Audio Codec
Format profile                   : LC
Codec ID                         : 40
Duration                         : 2mn 31s
Bit rate mode                    : Constant
Bit rate                         : 79.7 Kbps
Nominal bit rate                 : 96.0 Kbps
Channel(s)                       : 2 channels
Channel positions                : Front: L R
Sampling rate                    : 44.1 KHz
Compression mode                 : Lossy
Stream size                      : 1.44 MiB (1%)
Language                         : English
Encoded date                     : UTC 2011-12-19 23:05:34
Tagged date                      : UTC 2011-12-20 00:25:37
Material_Duration                : 151208
Material_StreamSize              : 1507316

Menu

ID                               : 3
Language                         : English
Encoded date                     : UTC 2011-12-19 23:05:42
Tagged date                      : UTC 2011-12-20 00:25:37